<svg xmlns="http://www.w3.org/2000/svg" width="72.445" height="49.523" viewBox="0 0 72.445 49.523"><g transform="translate(0 -81)"><path d="M71.629,95.095a2.122,2.122,0,0,0-2.369-.165L51.644,105.114,38.051,82.045a2.123,2.123,0,0,0-3.657,0L20.8,105.114,3.184,94.929a2.122,2.122,0,0,0-3.1,2.425l9.109,31.634a2.122,2.122,0,0,0,2.039,1.535H61.213a2.122,2.122,0,0,0,2.039-1.535l9.109-31.634A2.122,2.122,0,0,0,71.629,95.095Z" transform="translate(0)" fill="#ffd364"/><path d="M291.407,95.095a2.122,2.122,0,0,0-2.369-.165c-5,16.15-7.969,25.5-9.238,28.883s-23.8,6.711-23.8,6.711h24.991a2.122,2.122,0,0,0,2.039-1.535l9.109-31.634A2.122,2.122,0,0,0,291.407,95.095Z" transform="translate(-219.778)" fill="#ffc124"/><path d="M19.781,263.241l20.03,11.58,12.02-10.2a2.124,2.124,0,0,1,2.748,0l12.02,10.2,20.03-11.58-1.694,5.882L67.429,279.244a2.12,2.12,0,0,1-2.437-.219l-11.788-10-11.788,10a2.121,2.121,0,0,1-2.437.219l-17.5-10.12h0Z" transform="translate(-16.982 -156.455)" fill="#ffef64"/></g></svg>