<svg xmlns="http://www.w3.org/2000/svg" id="instagram" width="50.496" height="50.496" viewBox="0 0 50.496 50.496">
    <defs>
        <style>
            .cls-1{fill:#1d2951}
        </style>
    </defs>
    <path id="Path_7" d="M36.826 0H13.668A13.684 13.684 0 0 0 0 13.669v23.159A13.684 13.684 0 0 0 13.668 50.5h23.159A13.684 13.684 0 0 0 50.5 36.828V13.669A13.684 13.684 0 0 0 36.826 0zM25.247 39.055a13.807 13.807 0 1 1 13.807-13.807 13.823 13.823 0 0 1-13.807 13.807zM39.384 14.7a4.08 4.08 0 1 1 4.08-4.08 4.084 4.084 0 0 1-4.08 4.08zm0 0" class="cls-1" transform="translate(0.001)"/>
    <path id="Path_8" d="M156.867 146.02a10.847 10.847 0 1 0 10.847 10.847 10.859 10.859 0 0 0-10.847-10.847zm0 0" class="cls-1" transform="translate(-131.619 -131.619)"/>
    <path id="Path_9" d="M389.112 96.3a1.12 1.12 0 1 0 1.12 1.12 1.121 1.121 0 0 0-1.12-1.12zm0 0" class="cls-1" transform="translate(-349.727 -86.803)"/>
</svg>
