<svg xmlns="http://www.w3.org/2000/svg" id="Component_49_2" width="80" height="80" viewBox="0 0 80 80">
    <defs>
        <style>
            .cls-2{stroke:#1d2951}
        </style>
    </defs>
    <path id="Rectangle_231" fill="#fafafb" d="M0 0H80V80H0z"/>
    <g id="question-sign-in-circles" transform="translate(17 2)">
        <g id="Group_236" transform="translate(-7 8)">
            <path id="Path_1667" d="M23.619 13.891c2.776 0 4.444 1.481 4.444 3.979 0 4.537-8.1 5.787-8.1 11.293a2.943 2.943 0 0 0 2.96 3.1c3.054 0 2.685-2.268 3.8-3.889C28.2 26.2 35.1 23.886 35.1 17.868c0-6.523-5.829-9.256-11.754-9.256-5.644 0-10.83 4.027-10.83 8.563A2.769 2.769 0 0 0 15.524 20c4.485 0 2.176-6.109 8.095-6.109z" class="cls-2" transform="translate(6.204 4.27)"/>
            <path id="Path_1668" d="M24.651 30.231a3.795 3.795 0 1 0-3.795 3.795 3.812 3.812 0 0 0 3.795-3.795z" class="cls-2" transform="translate(8.459 13.107)"/>
            <path id="Path_1669" d="M60.017 30.009a30.009 30.009 0 1 0-30.008 30.008 30.043 30.043 0 0 0 30.008-30.008zm-57.025 0a27.017 27.017 0 1 1 27.017 27.016A27.048 27.048 0 0 1 2.992 30.009z" class="cls-2"/>
        </g>
    </g>
</svg>
