<svg id="Component_10_4" data-name="Component 10 – 4" xmlns="http://www.w3.org/2000/svg" width="254" height="58">
    <defs>
        <clipPath id="clip-path">
            <path id="Rectangle_194" data-name="Rectangle 194" transform="translate(360 20)" style="fill:none;stroke:#707070" d="M0 0h254v58H0z"/>
        </clipPath>
        <style>
            .cls-3{fill:#c9e3fb}.cls-4{fill:#1d2951}.cls-5{fill:#ffd364}
        </style>
    </defs>
    <g id="Mask_Group_14" data-name="Mask Group 14" transform="translate(-360 -20)" style="clip-path:url(#clip-path)">
        <g id="Full_logo_logo-06" data-name="Full logo logo-06" transform="translate(321.888 -1.69)">
            <g id="Layer_1" data-name="Layer 1" transform="translate(39.3 23.69)">
                <rect id="Rectangle_260" data-name="Rectangle 260" class="cls-3" width="34.437" height="6.449" rx="2.83" transform="translate(1.02 27.963)"/>
                <path id="Path_1726" data-name="Path 1726" class="cls-4" d="M73.791 76.839H41.279A1.979 1.979 0 0 1 39.3 74.86v-4.525a1.985 1.985 0 0 1 1.979-1.985h32.512a1.985 1.985 0 0 1 1.979 1.985v4.525a1.979 1.979 0 0 1-1.979 1.979zm-32.458-2.034h32.4v-4.416h-32.4z" transform="translate(-39.3 -41.406)"/>
                <rect id="Rectangle_261" data-name="Rectangle 261" class="cls-3" width="31.457" height="19.04" rx="2.83" transform="translate(2.51 34.413)"/>
                <path id="Path_1727" data-name="Path 1727" class="cls-4" d="M73.281 100.136H43.749a1.985 1.985 0 0 1-1.979-1.985V81.029a1.979 1.979 0 0 1 1.979-1.979h29.532a1.979 1.979 0 0 1 1.979 1.979v17.116a1.985 1.985 0 0 1-1.979 1.991zM43.809 98.1H73.22V81.083H43.809z" transform="translate(-40.28 -45.651)"/>
                <rect id="Rectangle_262" data-name="Rectangle 262" class="cls-5" width="7.716" height="25.49" rx="2.83" transform="translate(14.377 27.963)"/>
                <path id="Path_1728" data-name="Path 1728" class="cls-4" d="M69.211 95.891h-5.786a1.985 1.985 0 0 1-1.985-1.985V70.335a1.985 1.985 0 0 1 1.985-1.985h5.786a1.985 1.985 0 0 1 1.989 1.985V93.9a1.985 1.985 0 0 1-1.985 1.991zm-5.731-2.039h5.677V70.389h-5.678z" transform="translate(-48.083 -41.406)"/>
                <path id="Path_1729" data-name="Path 1729" class="cls-4" d="m65.728 33.669-.446-.217a32.314 32.314 0 0 0-4.471-1.81l-.971-.3.3-.971c1.339-4.308 3.342-6.679 5.653-6.679s4.308 2.365 5.641 6.636l.308.977-.983.3a32.167 32.167 0 0 0-4.585 1.81zm-3.328-3.62a34.125 34.125 0 0 1 3.33 1.388 34.3 34.3 0 0 1 3.433-1.418c-.971-2.691-2.226-4.332-3.373-4.332s-2.409 1.653-3.39 4.332z" transform="translate(-47.448 -23.69)"/>
                <path id="Path_1730" data-name="Path 1730" class="cls-4" d="m50.513 43.74-.664-.766c-3.306-3.789-4.374-7.01-3.017-9.05s4.591-2.311 9.188-.863l.971.308-.3.965a30.649 30.649 0 0 0-1.08 5.062l-.06.452-.374.253a44.452 44.452 0 0 0-3.909 3.017zm.507-9.55a2.9 2.9 0 0 0-2.474.845c-.7 1.05.163 3.288 2.2 5.834.923-.76 1.906-1.5 2.926-2.208a33.863 33.863 0 0 1 .8-3.952 13.72 13.72 0 0 0-3.452-.52z" transform="translate(-42.06 -27.046)"/>
                <path id="Path_1731" data-name="Path 1731" class="cls-4" d="m57.93 41.759.3-2.268a33.3 33.3 0 0 1 1.154-5.391l.3-.977.977.308a33.913 33.913 0 0 1 4.76 1.937l1.87.917-1.876.911a44.737 44.737 0 0 0-5.068 2.914l-.531.362zm3.113-6.033c-.151.6-.3 1.207-.416 1.81.67-.416 1.345-.808 2.021-1.176a15.7 15.7 0 0 0-1.6-.652z" transform="translate(-46.69 -27.431)"/>
                <path id="Path_1732" data-name="Path 1732" class="cls-4" d="m81.659 43.758-.772-.664a43.348 43.348 0 0 0-3.722-2.872l-.368-.259-.06-.446a31.275 31.275 0 0 0-1.1-5.194l-.308-.977.983-.3c4.477-1.37 7.656-1.038 8.965.929s.308 5.255-2.956 9.019zM78.7 38.805a45.829 45.829 0 0 1 2.727 2.075c2-2.522 2.848-4.736 2.154-5.78s-2.842-1.11-5.707-.38a34.387 34.387 0 0 1 .826 4.085z" transform="translate(-53.593 -27.071)"/>
                <path id="Path_1733" data-name="Path 1733" class="cls-4" d="m75.256 41.878-1.888-1.3c-.247-.175-.507-.35-.76-.519a44.162 44.162 0 0 0-4.977-2.872l-1.87-.917 1.87-.917a33.641 33.641 0 0 1 4.91-1.953l.965-.3.3.965a32.951 32.951 0 0 1 1.209 5.535zm-4.826-5.544c.724.4 1.448.827 2.166 1.273a28.491 28.491 0 0 0-.446-1.937 22.75 22.75 0 0 0-1.744.664z" transform="translate(-49.796 -27.423)"/>
                <path id="Path_1734" data-name="Path 1734" class="cls-4" d="M77.784 51.269V48.56a44.36 44.36 0 0 0-.362-5.75l-.3-2.281 1.894 1.309a46.1 46.1 0 0 1 3.891 3.017l.778.664-.67.772a34.817 34.817 0 0 1-3.542 3.509zm1.925-6.413c.048.6.078 1.243.1 1.876.344-.338.676-.67.989-1.008-.354-.295-.734-.585-1.09-.868z" transform="translate(-54.303 -30.37)"/>
                <path id="Path_1735" data-name="Path 1735" class="cls-4" d="m57.2 51.348-1.707-1.454a34.544 34.544 0 0 1-3.722-3.62l-.681-.774.778-.67a46.4 46.4 0 0 1 4.085-3.13l1.888-1.291-.3 2.268a45.038 45.038 0 0 0-.38 5.864v.5zM54 45.683c.362.386.748.778 1.152 1.164q.036-1.092.127-2.172c-.442.314-.865.67-1.279 1.008z" transform="translate(-43.977 -30.323)"/>
                <path id="Path_1736" data-name="Path 1736" class="cls-4" d="m64.909 53.127-.525-.32c-.6-.374-1.207-.742-1.774-1.122a45.128 45.128 0 0 1-4.464-3.354l-.356-.3v-1.075a47.1 47.1 0 0 1 .392-6.136l.06-.446.374-.259.555-.374a47.493 47.493 0 0 1 5.3-3.053l.452-.217.446.223a46.648 46.648 0 0 1 5.2 3.017l.8.543.368.253.06.452a46.314 46.314 0 0 1 .38 6.033v.929l-.35.3a46.61 46.61 0 0 1-4.694 3.547c-.543.362-1.092.712-1.7 1.074zm-5.092-6.033a45.249 45.249 0 0 0 3.922 2.914c.38.253.766.5 1.17.748.374-.235.736-.465 1.092-.706a42.953 42.953 0 0 0 4.139-3.095 44.286 44.286 0 0 0-.308-5.285l-.386-.259a44.373 44.373 0 0 0-4.531-2.649 46.025 46.025 0 0 0-4.621 2.691l-.151.1a43.934 43.934 0 0 0-.326 5.43z" transform="translate(-46.635 -28.76)"/>
                <circle id="Ellipse_13" data-name="Ellipse 13" class="cls-5" cx="3.24" cy="3.24" r="3.24" transform="translate(14.998 12.627)"/>
                <path id="Path_1737" data-name="Path 1737" class="cls-4" d="M66.729 51.449a4.259 4.259 0 1 1 4.26-4.249 4.259 4.259 0 0 1-4.259 4.253zm0-6.486A2.226 2.226 0 1 0 68.95 47.2a2.226 2.226 0 0 0-2.221-2.237z" transform="translate(-48.491 -31.322)"/>
            </g>
            <g id="Layer_2" data-name="Layer 2" transform="translate(92.566 45.156)">
                <path id="Path_1738" data-name="Path 1738" class="cls-4" d="M127.59 77.182c0-9.05 7.047-15.752 16.663-15.752s16.663 6.636 16.663 15.752-7.095 15.746-16.663 15.746-16.663-6.696-16.663-15.746zm26.19 0c0-5.786-4.09-9.749-9.526-9.749s-9.532 3.964-9.532 9.749 4.09 9.743 9.532 9.743 9.526-3.957 9.526-9.743z" transform="translate(-127.59 -60.127)"/>
                <path id="Path_1739" data-name="Path 1739" class="cls-4" d="M214.33 74v23.408h-6.437v-2.787a9.478 9.478 0 0 1-7.27 3.131c-5.87 0-10-3.306-10-10.528V74h6.787v12.211c0 3.915 1.738 5.659 4.742 5.659 3.131 0 5.394-2 5.394-6.311V74z" transform="translate(-152.593 -65.113)"/>
                <path id="Path_1740" data-name="Path 1740" class="cls-4" d="M254.392 92.866a9.653 9.653 0 0 1-5.484 1.478c-5.569 0-8.748-2.823-8.748-8.392V65.44h6.787v5.7h5.786v5.2h-5.792v9.526c0 2 1.044 3.089 2.872 3.089a4.826 4.826 0 0 0 2.787-.869z" transform="translate(-172.246 -61.718)"/>
                <path id="Path_1741" data-name="Path 1741" class="cls-4" d="M291.626 59.27v32.283h-6.486v-2.7c-1.7 2.039-4.175 3.017-7.306 3.017-6.636 0-11.7-4.7-11.7-12.066s5.086-12.066 11.7-12.066a9.014 9.014 0 0 1 7 2.83V59.27zm-6.636 20.579c0-4.048-2.612-6.486-5.961-6.486S273 75.777 273 79.849s2.612 6.48 6.033 6.48 5.937-2.437 5.937-6.48z" transform="translate(-182.548 -59.27)"/>
                <path id="Path_1742" data-name="Path 1742" class="cls-4" d="M315.89 85.446c0-7.047 5.43-12.066 12.875-12.066S341.6 78.387 341.6 85.446s-5.4 12.066-12.838 12.066-12.872-5.019-12.872-12.066zm18.835 0c0-4.048-2.564-6.486-5.961-6.486s-6.033 2.413-6.033 6.486 2.612 6.48 6.033 6.48 5.961-2.438 5.961-6.48z" transform="translate(-202.287 -64.867)"/>
                <path id="Path_1743" data-name="Path 1743" class="cls-4" d="M389.933 83.767v13.4h-6.787V84.81c0-3.789-1.738-5.526-4.742-5.526-3.264 0-5.611 2-5.611 6.3v11.582H366V73.77h6.48v2.739a10.246 10.246 0 0 1 7.746-3.089c5.532-.012 9.707 3.21 9.707 10.347z" transform="translate(-222.165 -64.883)"/>
                <path id="Path_1744" data-name="Path 1744" class="cls-4" d="m432.8 89.784 3.62 3.915c-2.178 2.48-5.43 3.783-9.653 3.783-8.09 0-13.357-5.086-13.357-12.066s5.309-12.066 12.531-12.066c6.636 0 12.066 4.35 12.066 11.837l-17.315 3.348c1 2.3 3.173 3.481 6.22 3.481a7.927 7.927 0 0 0 5.888-2.232zm-12.742-5.05 11.4-2.214a5.405 5.405 0 0 0-5.526-4.006c-3.394 0-5.747 2.263-5.874 6.22z" transform="translate(-240.972 -64.855)"/>
            </g>
        </g>
    </g>
</svg>
