<svg xmlns="http://www.w3.org/2000/svg" id="Component_48_2" width="80" height="80" viewBox="0 0 80 80">
    <defs>
        <style>
            .cls-2{fill:#1d2951;stroke:#1d2951}
        </style>
    </defs>
    <path id="Rectangle_230" fill="#fafafb" d="M0 0H80V80H0z"/>
    <g id="farming-and-gardening" transform="translate(7 3.698)">
        <path id="Path_1665" d="M96 161.489v8.936a1.488 1.488 0 0 0 1.489 1.489h11.914a1.489 1.489 0 0 0 1.489-1.489v-8.936a1.489 1.489 0 0 0-1.485-1.489H97.493A1.489 1.489 0 0 0 96 161.489zm2.979 1.489h8.936v5.957h-8.933zm0 0" class="cls-2" transform="translate(-77.8 -130.102)"/>
        <path id="Path_1666" d="M76.716 31.687A18.319 18.319 0 0 0 46.658 17.6a18.332 18.332 0 1 0-35.146 7.958L.667 33.688a1.667 1.667 0 0 0 2 2.669l4-3V73.38h-5a1.668 1.668 0 0 0 0 3.335h73.38a1.667 1.667 0 0 0 1.668-1.668v-6.67a8.348 8.348 0 0 0-8.339-8.339h-8.337V49.947a18.363 18.363 0 0 0 16.677-18.26zM28.352 3.335A14.974 14.974 0 0 1 42.961 21.75c-.31.479-.6.976-.862 1.486l-12.746-9.56a1.664 1.664 0 0 0-2 0L14.257 23.5A15 15 0 0 1 28.352 3.335zm5 70.045H23.349V56.7h10.006zm13.342 0H36.69V55.035a1.668 1.668 0 0 0-1.668-1.668H21.681a1.667 1.667 0 0 0-1.668 1.668V73.38H10.007V30.853l18.345-13.759L46.7 30.853zm21.68-10.006a5.01 5.01 0 0 1 5 5v5H50.032v-10zm-18.342-3.336v-12.01a18.118 18.118 0 0 0 6.668 1.924v10.086zM58.371 46.7a14.872 14.872 0 0 1-8.339-2.538v-10.8l4 3a1.668 1.668 0 0 0 2-2.669l-10.842-8.14a18.433 18.433 0 0 0 .81-2.288A14.991 14.991 0 1 1 58.371 46.7zm0 0" class="cls-2" transform="translate(-5 -1.698)"/>
    </g>
</svg>
