<svg id="Component_48_2" data-name="Component 48 – 2" xmlns="http://www.w3.org/2000/svg" width="80" height="80.014">
    <defs>
        <style>
            .cls-2{fill:#1d2951;stroke:#1d2951}
        </style>
    </defs>
    <path id="Rectangle_230" data-name="Rectangle 230" style="fill:none" d="M0 0h80v80H0z"/>
    <g id="Rural" transform="translate(6.955 4.614)">
        <path id="Path_1724" data-name="Path 1724" class="cls-2" d="M16.2 31.4v8.9a1.538 1.538 0 0 0 1.5 1.5h11.9a1.538 1.538 0 0 0 1.5-1.5v-8.9a1.538 1.538 0 0 0-1.5-1.5H17.7a1.538 1.538 0 0 0-1.5 1.5zm3 1.5h8.9v6h-8.9z"/>
        <path id="Path_1725" data-name="Path 1725" class="cls-2" d="M71.7 30a18.311 18.311 0 0 0-30.1-14A18.312 18.312 0 0 0 5 17.3a18.676 18.676 0 0 0 1.5 6.6L-4.3 32a1.621 1.621 0 0 0-.3 2.3 1.621 1.621 0 0 0 2.3.3l4-3v40h-5a1.666 1.666 0 0 0-1.6 1.7 1.58 1.58 0 0 0 1.6 1.6H70a1.685 1.685 0 0 0 1.7-1.7v-6.7a8.28 8.28 0 0 0-8.3-8.3H55v-10A18.2 18.2 0 0 0 71.7 30zM23.4 1.6a14.959 14.959 0 0 1 15 14.9A13.934 13.934 0 0 1 38 20l-.9 1.5L24.4 12a1.817 1.817 0 0 0-2 0L9.3 21.8a14.854 14.854 0 0 1 8.9-19.2 13.024 13.024 0 0 1 5.2-1zm5 70.1h-10V55h10zm13.3 0h-10V53.3a1.685 1.685 0 0 0-1.7-1.7H16.7a1.685 1.685 0 0 0-1.7 1.7v18.3H5V29.2l18.3-13.8 18.3 13.8zm21.7-10a4.951 4.951 0 0 1 5 5v5H45v-10zM45 58.3v-12a17.236 17.236 0 0 0 6.7 1.9v10.1H45zM53.4 45a15.008 15.008 0 0 1-8.3-2.5V31.7l4 3a1.628 1.628 0 0 0 2.3-.4 1.716 1.716 0 0 0-.3-2.3l-10.8-8.1a15.546 15.546 0 0 0 .8-2.3A14.964 14.964 0 1 1 53.4 45z"/>
    </g>
</svg>
