<svg xmlns="http://www.w3.org/2000/svg" width="120" height="80" viewBox="0 0 120 80">
    <path fill="#fafafb" d="M0 0H120V80H0z"/>
    <path fill="#1d2951" stroke="#fff" stroke-width="1.5px" d="M107.291 44l-5.422-3.08-15.5-8.8a3.213 3.213 0 0 0-3.177 0l-10.69 6.074v-12.35l1.07.608a3.216 3.216 0 1 0 3.178-5.592L40.78.421a3.219 3.219 0 0 0-3.178 0L1.629 20.86a3.216 3.216 0 1 0 3.178 5.592l1.07-.608v42.7a3.216 3.216 0 0 0 3.216 3.216h91.186a3.216 3.216 0 0 0 3.216-3.216v-19.3l.618.352A3.216 3.216 0 0 0 107.291 44zM12.309 22.19L39.191 6.915 66.073 22.19v43.138H53.01V41.344a3.216 3.216 0 0 0-3.217-3.216H28.588a3.216 3.216 0 0 0-3.216 3.216v23.984H12.308V22.19zM31.8 65.328V44.561h14.778v20.767zm51.142 0v-7.5h3.675v7.5zm14.116 0h-4.004v-10.72a3.216 3.216 0 0 0-3.216-3.216H79.731a3.216 3.216 0 0 0-3.216 3.216v10.72h-4.009V45.589l12.279-6.977 12.279 6.977zm0 0" transform="translate(5.999 4.24)"/>
</svg>
