<svg data-name="Component 47 – 2" xmlns="http://www.w3.org/2000/svg" width="120" height="80">
    <path data-name="Rectangle 229" style="fill:none" d="M0 0h120v80H0z"/>
    <path d="M112.9 52.9 92 41a2.548 2.548 0 0 0-2.4 0l-11.8 6.7V32.8L80 34a2.44 2.44 0 0 0 3.6-2.8 2.555 2.555 0 0 0-1.2-1.5l-36-20.4a2.548 2.548 0 0 0-2.4 0L8 29.8a2.521 2.521 0 0 0-1 3.4 2.467 2.467 0 0 0 3.4.9l2.2-1.3v44a2.476 2.476 0 0 0 2.5 2.5h91.2a2.476 2.476 0 0 0 2.5-2.5V56.2l1.7 1a2.491 2.491 0 0 0 1.9.2 2.555 2.555 0 0 0 1.5-1.2 2.491 2.491 0 0 0 .2-1.9 2.365 2.365 0 0 0-1.2-1.4zM53.3 74.3H37V52.1h16.3zm19.5 0H58.3V49.6a2.476 2.476 0 0 0-2.5-2.5H34.6a2.476 2.476 0 0 0-2.5 2.5v24.7H17.6V30l27.6-15.7L72.8 30zm20.6 0h-5.2v-9h5.2zm10.4 0h-5.5V62.8a2.476 2.476 0 0 0-2.5-2.5H85.7a2.476 2.476 0 0 0-2.5 2.5v11.5h-5.5V53.4l13-7.4 13 7.4z" transform="translate(.304)" style="fill:#1d2951"/>
</svg>
