<svg id="Component_46_2" data-name="Component 46 – 2" xmlns="http://www.w3.org/2000/svg" width="80" height="80.3">
    <defs>
        <style>
            .cls-2{fill:#1d2951}
        </style>
    </defs>
    <g id="Urban-01" transform="translate(-10.8 4)">
        <path id="Path_1719" data-name="Path 1719" class="cls-2" d="M84.5 71.9h-5.9V2.2A2.22 2.22 0 0 0 76.4 0H25.1a2.22 2.22 0 0 0-2.2 2.2v69.7H17a2.2 2.2 0 1 0 0 4.4h67.5a2.2 2.2 0 1 0 0-4.4zm-41.4 0V56.7h15.3V72H43.1zm19.7 0V54.4a2.22 2.22 0 0 0-2.2-2.2H40.8a2.22 2.22 0 0 0-2.2 2.2v17.5H27.3V4.5h46.8v67.4z"/>
        <path id="Path_1720" data-name="Path 1720" class="cls-2" d="M45.9 9.9h-11a2.22 2.22 0 0 0-2.2 2.2v11a2.22 2.22 0 0 0 2.2 2.2h11a2.22 2.22 0 0 0 2.2-2.2v-11a2.22 2.22 0 0 0-2.2-2.2zm-2.2 11h-6.5v-6.5h6.5z"/>
        <path id="Path_1721" data-name="Path 1721" class="cls-2" d="M66.5 9.9h-11a2.22 2.22 0 0 0-2.2 2.2v11a2.22 2.22 0 0 0 2.2 2.2h11a2.22 2.22 0 0 0 2.2-2.2v-11a2.22 2.22 0 0 0-2.2-2.2zm-2.2 11h-6.5v-6.5h6.5z"/>
        <path id="Path_1722" data-name="Path 1722" class="cls-2" d="M45.9 30.7h-11a2.22 2.22 0 0 0-2.2 2.2v11a2.22 2.22 0 0 0 2.2 2.2h11a2.22 2.22 0 0 0 2.2-2.2V33a2.242 2.242 0 0 0-2.2-2.3zm-2.2 11h-6.5v-6.5h6.5z"/>
        <path id="Path_1723" data-name="Path 1723" class="cls-2" d="M66.5 30.7h-11a2.22 2.22 0 0 0-2.2 2.2v11a2.22 2.22 0 0 0 2.2 2.2h11a2.22 2.22 0 0 0 2.2-2.2V33a2.242 2.242 0 0 0-2.2-2.3zm-2.2 11h-6.5v-6.5h6.5z"/>
    </g>
</svg>
