<svg xmlns="http://www.w3.org/2000/svg" width="50" height="40.625" viewBox="0 0 50 40.625">
    <path fill="none" d="M0 0H50V40.625H0z"/>
    <path fill="#1d2951" d="M44.863 12.381A20.461 20.461 0 0 0 50 7.06a21.408 21.408 0 0 1-5.906 1.619A10.2 10.2 0 0 0 48.6 3.013a20.51 20.51 0 0 1-6.5 2.481A10.25 10.25 0 0 0 24.373 12.5a10.555 10.555 0 0 0 .237 2.338A29.021 29.021 0 0 1 3.481 4.117a10.25 10.25 0 0 0 3.15 13.7A10.132 10.132 0 0 1 2 16.554v.112a10.3 10.3 0 0 0 8.213 10.074 10.193 10.193 0 0 1-2.687.338 9.047 9.047 0 0 1-1.94-.175 10.351 10.351 0 0 0 9.577 7.142 20.6 20.6 0 0 1-12.71 4.371A19.387 19.387 0 0 1 0 38.275a28.866 28.866 0 0 0 15.725 4.6 28.975 28.975 0 0 0 29.138-30.494z" transform="translate(0 -2.25)"/>
</svg>
