<svg xmlns="http://www.w3.org/2000/svg" id="Component_46_2" width="80" height="80" viewBox="0 0 80 80">
    <defs>
        <style>
            .cls-2{fill:#1d2951}
        </style>
    </defs>
    <path id="Rectangle_228" fill="#fafafb" d="M0 0H80V80H0z"/>
    <g id="building" transform="translate(-10.716 1.61)">
        <path id="Path_1660" d="M84.476 71.914h-5.9V2.238A2.238 2.238 0 0 0 76.334 0H25.1a2.238 2.238 0 0 0-2.238 2.238v69.676h-5.9a2.238 2.238 0 1 0 0 4.476h67.515a2.238 2.238 0 1 0 0-4.476zm-41.39 0V56.656h15.258v15.258zm19.733 0v-17.5a2.238 2.238 0 0 0-2.238-2.238H40.849a2.238 2.238 0 0 0-2.238 2.238v17.5H27.334V4.476H74.1v67.438z" class="cls-2"/>
        <path id="Path_1661" d="M148.445 66.309h-10.967a2.238 2.238 0 0 0-2.238 2.238v10.967a2.238 2.238 0 0 0 2.238 2.238h10.967a2.238 2.238 0 0 0 2.238-2.238V68.547a2.238 2.238 0 0 0-2.238-2.238zm-2.238 10.967h-6.491v-6.491h6.491z" class="cls-2" transform="translate(-102.542 -56.416)"/>
        <path id="Path_1662" d="M286.457 66.309H275.49a2.238 2.238 0 0 0-2.238 2.238v10.967a2.238 2.238 0 0 0 2.238 2.238h10.967a2.238 2.238 0 0 0 2.238-2.238V68.547a2.238 2.238 0 0 0-2.238-2.238zm-2.238 10.967h-6.491v-6.491h6.491z" class="cls-2" transform="translate(-219.963 -56.416)"/>
        <path id="Path_1663" d="M148.445 205.954h-10.967a2.238 2.238 0 0 0-2.238 2.238v10.967a2.238 2.238 0 0 0 2.238 2.238h10.967a2.238 2.238 0 0 0 2.238-2.238v-10.967a2.238 2.238 0 0 0-2.238-2.238zm-2.238 10.967h-6.491v-6.491h6.491z" class="cls-2" transform="translate(-102.542 -175.226)"/>
        <path id="Path_1664" d="M286.457 205.954H275.49a2.238 2.238 0 0 0-2.238 2.238v10.967a2.238 2.238 0 0 0 2.238 2.238h10.967a2.238 2.238 0 0 0 2.238-2.238v-10.967a2.238 2.238 0 0 0-2.238-2.238zm-2.238 10.967h-6.491v-6.491h6.491z" class="cls-2" transform="translate(-219.963 -175.226)"/>
    </g>
</svg>
